<?xml version="1.0" encoding="UTF-8"?>
<svg xmlns="http://www.w3.org/2000/svg" xmlns:xlink="http://www.w3.org/1999/xlink" width="277px" height="361px" viewBox="0 0 277 361" version="1.1">
<defs>
<linearGradient id="linear0" gradientUnits="userSpaceOnUse" x1="483.350006" y1="70.919998" x2="483.350006" y2="261.350006" gradientTransform="matrix(0.394936,0,0,0.394753,0,0.182665)">
<stop offset="0.2" style="stop-color:rgb(99.607843%,0%,0%);stop-opacity:1;"/>
<stop offset="0.53" style="stop-color:rgb(98.039216%,0%,0%);stop-opacity:1;"/>
<stop offset="0.6" style="stop-color:rgb(97.647059%,0%,0%);stop-opacity:1;"/>
<stop offset="0.67" style="stop-color:rgb(95.294118%,0%,0%);stop-opacity:1;"/>
<stop offset="0.76" style="stop-color:rgb(89.803922%,0%,0%);stop-opacity:1;"/>
<stop offset="0.85" style="stop-color:rgb(80%,0%,0%);stop-opacity:1;"/>
<stop offset="0.95" style="stop-color:rgb(67.45098%,0%,0%);stop-opacity:1;"/>
</linearGradient>
<linearGradient id="linear1" gradientUnits="userSpaceOnUse" x1="189.720001" y1="82.57" x2="189.720001" y2="227.279999" gradientTransform="matrix(0.394936,0,0,0.394753,0,0.182665)">
<stop offset="0.05" style="stop-color:rgb(5.882353%,20%,83.529412%);stop-opacity:1;"/>
<stop offset="0.29" style="stop-color:rgb(4.705882%,15.686275%,78.039216%);stop-opacity:1;"/>
<stop offset="0.74" style="stop-color:rgb(1.568627%,5.490196%,63.529412%);stop-opacity:1;"/>
<stop offset="0.95" style="stop-color:rgb(0%,0%,56.078431%);stop-opacity:1;"/>
</linearGradient>
</defs>
<g id="surface1">
<path style=" stroke:none;fill-rule:nonzero;fill:rgb(100%,100%,100%);fill-opacity:1;" d="M 138.496094 360.816406 C 62.128906 360.816406 0 297.796875 0 220.332031 C 0 219.390625 0.0234375 56.242188 0.03125 21.878906 L 0.03125 0.183594 L 276.949219 0.183594 L 276.957031 21.875 C 276.972656 55.992188 277 219.046875 277 220.332031 C 277 297.796875 214.867188 360.816406 138.496094 360.816406 Z M 138.496094 360.816406 "/>
<path style=" stroke:none;fill-rule:nonzero;fill:rgb(55.29412%,56.078434%,56.078434%);fill-opacity:1;" d="M 269.121094 21.878906 L 269.121094 8.015625 L 7.871094 8.015625 L 7.871094 21.878906 C 7.859375 56.515625 7.835938 219.402344 7.835938 220.332031 C 7.835938 293.476562 66.449219 352.980469 138.492188 352.980469 C 210.535156 352.980469 269.160156 293.476562 269.160156 220.332031 C 269.160156 219.039062 269.132812 55.734375 269.117188 21.878906 Z M 138.496094 345.148438 C 70.769531 345.148438 15.675781 289.152344 15.675781 220.332031 C 15.675781 217.859375 15.699219 48.527344 15.707031 15.851562 L 261.285156 15.851562 C 261.296875 48.53125 261.328125 217.863281 261.328125 220.332031 C 261.328125 289.152344 206.226562 345.148438 138.496094 345.148438 Z M 138.496094 345.148438 "/>
<path style=" stroke:none;fill-rule:nonzero;fill:rgb(0%,7.843138%,53.725493%);fill-opacity:1;" d="M 134.664062 316.03125 C 131.371094 316.03125 128.707031 313.367188 128.707031 310.074219 L 128.707031 277.425781 L 152.125 277.425781 L 152.125 286.378906 L 138.3125 286.378906 L 138.3125 292.144531 L 150.851562 292.144531 L 150.851562 301.128906 L 138.3125 301.128906 L 138.3125 316.03125 Z M 98.882812 310.070312 C 98.882812 313.363281 101.554688 316.027344 104.847656 316.027344 L 122.125 316.027344 L 122.125 307.125 L 108.492188 307.125 L 108.492188 301.128906 L 121.027344 301.128906 L 121.027344 292.140625 L 108.492188 292.140625 L 108.492188 286.378906 L 122.1875 286.378906 L 122.1875 277.425781 L 98.886719 277.425781 L 98.886719 310.074219 Z M 179.644531 316.03125 L 179.644531 307.132812 L 167.6875 307.132812 L 167.6875 277.425781 L 158.085938 277.425781 L 158.085938 310.074219 C 158.085938 313.367188 160.753906 316.03125 164.042969 316.03125 Z M 179.644531 316.03125 "/>
<path style=" stroke:none;fill-rule:nonzero;fill:rgb(0%,7.843138%,53.725493%);fill-opacity:1;" d="M 140.746094 232.558594 C 140.746094 236.578125 137.484375 239.832031 133.46875 239.832031 C 129.453125 239.832031 126.191406 236.578125 126.191406 232.558594 C 126.191406 228.539062 129.449219 225.277344 133.46875 225.277344 C 137.488281 225.277344 140.746094 228.539062 140.746094 232.558594 Z M 149.261719 225.515625 C 145.675781 225.515625 142.765625 228.425781 142.765625 232.011719 C 142.765625 235.601562 145.675781 238.511719 149.261719 238.511719 C 152.847656 238.511719 155.761719 235.605469 155.761719 232.011719 C 155.761719 228.421875 152.851562 225.515625 149.261719 225.515625 Z M 148.691406 240.253906 C 145.1875 240.253906 142.339844 243.097656 142.339844 246.601562 C 142.339844 250.109375 145.183594 252.949219 148.691406 252.949219 C 152.203125 252.949219 155.042969 250.105469 155.042969 246.601562 C 155.042969 243.101562 152.199219 240.253906 148.691406 240.253906 Z M 162.433594 224.132812 C 159.457031 224.132812 157.042969 226.546875 157.042969 229.523438 C 157.042969 232.5 159.457031 234.910156 162.433594 234.910156 C 165.410156 234.910156 167.824219 232.5 167.824219 229.523438 C 167.824219 226.546875 165.410156 224.132812 162.433594 224.132812 Z M 172 219.332031 C 169.542969 219.332031 167.550781 221.324219 167.550781 223.78125 C 167.550781 226.242188 169.542969 228.230469 172 228.230469 C 174.453125 228.230469 176.449219 226.242188 176.449219 223.78125 C 176.449219 221.324219 174.453125 219.332031 172 219.332031 Z M 178.320312 213.4375 C 176.378906 213.4375 174.800781 215.011719 174.800781 216.953125 C 174.800781 218.894531 176.378906 220.472656 178.320312 220.472656 C 180.265625 220.472656 181.839844 218.894531 181.839844 216.953125 C 181.839844 215.011719 180.265625 213.4375 178.320312 213.4375 Z M 178.371094 226.480469 C 176.507812 226.480469 175 227.988281 175 229.851562 C 175 231.714844 176.511719 233.222656 178.371094 233.222656 C 180.234375 233.222656 181.742188 231.714844 181.742188 229.851562 C 181.742188 227.988281 180.234375 226.480469 178.371094 226.480469 Z M 179.726562 237.070312 C 177.898438 237.070312 176.414062 238.554688 176.414062 240.382812 C 176.414062 242.210938 177.898438 243.695312 179.726562 243.695312 C 181.554688 243.695312 183.042969 242.210938 183.042969 240.382812 C 183.042969 238.554688 181.5625 237.070312 179.726562 237.070312 Z M 183.652344 231.476562 C 182.207031 231.476562 181.035156 232.648438 181.035156 234.09375 C 181.035156 235.539062 182.207031 236.710938 183.652344 236.710938 C 185.097656 236.710938 186.269531 235.539062 186.269531 234.09375 C 186.269531 232.648438 185.101562 231.476562 183.652344 231.476562 Z M 185.875 225.617188 C 184.566406 225.617188 183.503906 226.679688 183.503906 227.996094 C 183.503906 229.308594 184.566406 230.371094 185.875 230.371094 C 187.1875 230.371094 188.25 229.308594 188.25 227.996094 C 188.25 226.679688 187.1875 225.617188 185.875 225.617188 Z M 182.742188 220.1875 C 181.328125 220.1875 180.183594 221.332031 180.183594 222.742188 C 180.183594 224.148438 181.328125 225.289062 182.742188 225.289062 C 184.15625 225.289062 185.292969 224.144531 185.292969 222.742188 C 185.292969 221.335938 184.148438 220.1875 182.742188 220.1875 Z M 186.4375 213.054688 C 185.144531 213.054688 184.097656 214.097656 184.097656 215.394531 C 184.097656 216.6875 185.144531 217.734375 186.4375 217.734375 C 187.730469 217.734375 188.773438 216.683594 188.773438 215.394531 C 188.773438 214.101562 187.730469 213.054688 186.4375 213.054688 Z M 187.882812 218.917969 C 186.917969 218.917969 186.136719 219.699219 186.136719 220.667969 C 186.136719 221.636719 186.917969 222.414062 187.882812 222.414062 C 188.847656 222.414062 189.632812 221.632812 189.632812 220.667969 C 189.632812 219.703125 188.851562 218.917969 187.882812 218.917969 Z M 187.773438 208.03125 C 186.878906 208.03125 186.15625 208.753906 186.15625 209.648438 C 186.15625 210.539062 186.878906 211.261719 187.773438 211.261719 C 188.664062 211.261719 189.386719 210.539062 189.386719 209.648438 C 189.386719 208.753906 188.664062 208.03125 187.773438 208.03125 Z M 182.503906 207.34375 C 180.949219 207.34375 179.6875 208.605469 179.6875 210.160156 C 179.6875 211.714844 180.949219 212.972656 182.503906 212.972656 C 184.058594 212.972656 185.320312 211.710938 185.320312 210.160156 C 185.320312 208.609375 184.054688 207.34375 182.503906 207.34375 Z M 185.753906 201.875 C 184.542969 201.875 183.5625 202.855469 183.5625 204.066406 C 183.5625 205.273438 184.542969 206.253906 185.753906 206.253906 C 186.964844 206.253906 187.945312 205.277344 187.945312 204.066406 C 187.945312 202.851562 186.964844 201.875 185.753906 201.875 Z M 185.246094 197.078125 C 184.433594 197.078125 183.785156 197.734375 183.785156 198.542969 C 183.785156 199.351562 184.4375 200.007812 185.246094 200.007812 C 186.050781 200.007812 186.710938 199.351562 186.710938 198.542969 C 186.710938 197.734375 186.054688 197.078125 185.246094 197.078125 Z M 161.625 236.855469 C 158.691406 236.855469 156.320312 239.230469 156.320312 242.160156 C 156.320312 245.085938 158.691406 247.460938 161.625 247.460938 C 164.554688 247.460938 166.925781 245.085938 166.925781 242.160156 C 166.925781 239.230469 164.554688 236.855469 161.625 236.855469 Z M 133.664062 241.96875 C 129.972656 241.96875 126.980469 244.960938 126.980469 248.652344 C 126.980469 252.34375 129.972656 255.335938 133.664062 255.335938 C 137.359375 255.335938 140.351562 252.34375 140.351562 248.652344 C 140.351562 244.960938 137.355469 241.96875 133.664062 241.96875 Z M 140.945312 255.460938 C 137.742188 255.460938 135.148438 258.054688 135.148438 261.257812 C 135.148438 264.457031 137.746094 267.050781 140.945312 267.050781 C 144.144531 267.050781 146.742188 264.457031 146.742188 261.257812 C 146.742188 258.054688 144.148438 255.460938 140.945312 255.460938 Z M 153.847656 253.722656 C 150.871094 253.722656 148.453125 256.132812 148.453125 259.109375 C 148.453125 262.085938 150.871094 264.5 153.847656 264.5 C 156.824219 264.5 159.238281 262.085938 159.238281 259.109375 C 159.238281 256.132812 156.824219 253.722656 153.847656 253.722656 Z M 164.957031 248.796875 C 162.183594 248.796875 159.9375 251.042969 159.9375 253.816406 C 159.9375 256.585938 162.183594 258.832031 164.957031 258.832031 C 167.730469 258.832031 169.976562 256.585938 169.976562 253.816406 C 169.976562 251.042969 167.730469 248.796875 164.957031 248.796875 Z M 173.652344 242.976562 C 171.335938 242.976562 169.453125 244.855469 169.453125 247.167969 C 169.453125 249.480469 171.335938 251.359375 173.652344 251.359375 C 175.972656 251.359375 177.851562 249.480469 177.851562 247.167969 C 177.851562 244.855469 175.972656 242.976562 173.652344 242.976562 Z M 171.5 231.824219 C 169.074219 231.824219 167.109375 233.785156 167.109375 236.210938 C 167.109375 238.632812 169.074219 240.59375 171.5 240.59375 C 173.925781 240.59375 175.886719 238.632812 175.886719 236.210938 C 175.886719 233.785156 173.921875 231.824219 171.5 231.824219 Z M 171.5 231.824219 "/>
<path style=" stroke:none;fill-rule:nonzero;fill:rgb(0%,7.843138%,53.725493%);fill-opacity:1;" d="M 155.457031 204.554688 C 151.4375 204.554688 148.179688 207.816406 148.179688 211.832031 C 148.179688 215.851562 151.4375 219.109375 155.457031 219.109375 C 159.480469 219.109375 162.742188 215.847656 162.742188 211.832031 C 162.742188 207.820312 159.480469 204.554688 155.457031 204.554688 Z M 147.085938 191.929688 C 143.496094 191.929688 140.585938 194.839844 140.585938 198.425781 C 140.585938 202.015625 143.496094 204.925781 147.085938 204.925781 C 150.675781 204.925781 153.585938 202.015625 153.585938 198.425781 C 153.585938 194.839844 150.675781 191.929688 147.085938 191.929688 Z M 160.011719 185.277344 C 156.503906 185.277344 153.660156 188.121094 153.660156 191.625 C 153.660156 195.132812 156.503906 197.972656 160.011719 197.972656 C 163.519531 197.972656 166.363281 195.132812 166.363281 191.625 C 166.363281 188.117188 163.515625 185.273438 160.011719 185.277344 Z M 138.34375 182.886719 C 135.363281 182.886719 132.949219 185.296875 132.949219 188.273438 C 132.949219 191.25 135.363281 193.664062 138.34375 193.664062 C 141.320312 193.664062 143.730469 191.25 143.730469 188.273438 C 143.730469 185.296875 141.316406 182.886719 138.34375 182.886719 Z M 128.585938 178.414062 C 126.128906 178.414062 124.140625 180.402344 124.136719 182.863281 C 124.136719 185.316406 126.125 187.3125 128.585938 187.3125 C 131.042969 187.3125 133.039062 185.316406 133.035156 182.863281 C 133.035156 180.40625 131.042969 178.414062 128.585938 178.414062 Z M 119.507812 177.289062 C 117.566406 177.289062 115.992188 178.863281 115.992188 180.804688 C 115.992188 182.75 117.570312 184.324219 119.511719 184.324219 C 121.453125 184.324219 123.027344 182.753906 123.027344 180.804688 C 123.027344 178.859375 121.449219 177.289062 119.507812 177.289062 Z M 130.65625 170.945312 C 128.792969 170.945312 127.285156 172.453125 127.285156 174.316406 C 127.285156 176.179688 128.792969 177.6875 130.65625 177.6875 C 132.519531 177.6875 134.023438 176.179688 134.023438 174.316406 C 134.023438 172.453125 132.515625 170.945312 130.65625 170.945312 Z M 139.109375 164.523438 C 137.277344 164.523438 135.789062 166.007812 135.789062 167.839844 C 135.789062 169.671875 137.277344 171.148438 139.109375 171.148438 C 140.941406 171.148438 142.421875 169.664062 142.421875 167.839844 C 142.421875 166.011719 140.9375 164.523438 139.109375 164.523438 Z M 131.695312 165.003906 C 130.25 165.003906 129.078125 166.175781 129.078125 167.621094 C 129.078125 169.066406 130.25 170.238281 131.695312 170.238281 C 133.140625 170.238281 134.308594 169.066406 134.308594 167.621094 C 134.308594 166.175781 133.136719 165.003906 131.695312 165.003906 Z M 125.296875 166.371094 C 123.984375 166.371094 122.917969 167.4375 122.917969 168.746094 C 122.917969 170.058594 123.980469 171.117188 125.296875 171.117188 C 126.613281 171.117188 127.671875 170.058594 127.671875 168.746094 C 127.671875 167.4375 126.609375 166.371094 125.296875 166.371094 Z M 122.3125 171.53125 C 120.902344 171.53125 119.757812 172.679688 119.757812 174.085938 C 119.757812 175.496094 120.902344 176.640625 122.3125 176.640625 C 123.722656 176.640625 124.867188 175.5 124.867188 174.085938 C 124.867188 172.675781 123.726562 171.53125 122.3125 171.53125 Z M 114.101562 172.21875 C 112.804688 172.21875 111.761719 173.265625 111.761719 174.558594 C 111.761719 175.847656 112.808594 176.898438 114.101562 176.898438 C 115.390625 176.898438 116.4375 175.851562 116.4375 174.558594 C 116.4375 173.261719 115.390625 172.214844 114.101562 172.214844 Z M 117.984375 168.984375 C 117.019531 168.984375 116.234375 169.765625 116.234375 170.730469 C 116.234375 171.699219 117.015625 172.480469 117.984375 172.480469 C 118.949219 172.480469 119.730469 171.699219 119.730469 170.730469 C 119.730469 169.765625 118.945312 168.984375 117.984375 168.984375 Z M 108.453125 174.664062 C 107.5625 174.664062 106.839844 175.386719 106.839844 176.277344 C 106.839844 177.171875 107.5625 177.894531 108.453125 177.894531 C 109.347656 177.894531 110.070312 177.171875 110.070312 176.277344 C 110.070312 175.386719 109.347656 174.664062 108.453125 174.664062 Z M 111.535156 177.765625 C 109.972656 177.765625 108.714844 179.03125 108.714844 180.582031 C 108.714844 182.132812 109.972656 183.394531 111.535156 183.394531 C 113.09375 183.394531 114.351562 182.136719 114.351562 180.582031 C 114.351562 179.027344 113.089844 177.765625 111.535156 177.765625 Z M 104.625 178.625 C 103.414062 178.625 102.433594 179.609375 102.433594 180.816406 C 102.433594 182.027344 103.414062 183.007812 104.625 183.007812 C 105.839844 183.007812 106.816406 182.027344 106.816406 180.816406 C 106.816406 179.609375 105.839844 178.625 104.625 178.625 Z M 100.09375 182.554688 C 99.28125 182.554688 98.628906 183.210938 98.628906 184.019531 C 98.628906 184.828125 99.28125 185.484375 100.09375 185.484375 C 100.902344 185.484375 101.554688 184.828125 101.554688 184.019531 C 101.554688 183.210938 100.898438 182.554688 100.09375 182.554688 Z M 149.695312 177.355469 C 146.765625 177.355469 144.390625 179.726562 144.390625 182.65625 C 144.390625 185.585938 146.765625 187.960938 149.695312 187.960938 C 152.625 187.960938 155 185.589844 155 182.65625 C 155 179.722656 152.625 177.355469 149.695312 177.355469 Z M 169.300781 196.925781 C 165.609375 196.925781 162.613281 199.925781 162.613281 203.609375 C 162.613281 207.296875 165.609375 210.292969 169.300781 210.292969 C 172.992188 210.292969 175.988281 207.300781 175.988281 203.609375 C 175.988281 199.917969 172.992188 196.925781 169.300781 196.925781 Z M 176.582031 185.210938 C 173.382812 185.210938 170.785156 187.804688 170.785156 191.007812 C 170.785156 194.207031 173.382812 196.804688 176.582031 196.804688 C 179.78125 196.804688 182.382812 194.207031 182.382812 191.007812 C 182.382812 187.804688 179.785156 185.210938 176.582031 185.210938 Z M 168.273438 175.523438 C 165.296875 175.523438 162.882812 177.941406 162.882812 180.917969 C 162.882812 183.894531 165.296875 186.308594 168.273438 186.308594 C 171.253906 186.308594 173.667969 183.894531 173.667969 180.917969 C 173.667969 177.941406 171.253906 175.523438 168.273438 175.523438 Z M 158.128906 168.925781 C 155.355469 168.925781 153.105469 171.171875 153.105469 173.941406 C 153.105469 176.710938 155.351562 178.957031 158.128906 178.957031 C 160.90625 178.957031 163.152344 176.710938 163.148438 173.941406 C 163.148438 171.171875 160.902344 168.925781 158.128906 168.925781 Z M 148.027344 165.539062 C 145.707031 165.539062 143.832031 167.417969 143.832031 169.734375 C 143.832031 172.046875 145.710938 173.925781 148.03125 173.925781 C 150.347656 173.925781 152.222656 172.046875 152.222656 169.734375 C 152.222656 167.417969 150.34375 165.539062 148.027344 165.539062 Z M 139.605469 172.695312 C 137.179688 172.695312 135.214844 174.660156 135.214844 177.078125 C 135.214844 179.5 137.179688 181.46875 139.605469 181.46875 C 142.03125 181.46875 143.992188 179.503906 143.992188 177.078125 C 143.992188 174.65625 142.027344 172.695312 139.605469 172.695312 Z M 139.605469 172.695312 "/>
<path style=" stroke:none;fill-rule:nonzero;fill:rgb(55.29412%,56.078434%,56.078434%);fill-opacity:1;" d="M 126.5 195.882812 C 122.480469 195.882812 119.222656 199.140625 119.222656 203.160156 C 119.222656 207.179688 122.480469 210.4375 126.5 210.4375 C 130.523438 210.4375 133.785156 207.179688 133.785156 203.160156 C 133.785156 199.140625 130.527344 195.882812 126.5 195.882812 Z M 119.078125 210.609375 C 115.488281 210.609375 112.578125 213.519531 112.578125 217.109375 C 112.578125 220.695312 115.488281 223.605469 119.078125 223.605469 C 122.667969 223.605469 125.578125 220.695312 125.578125 217.109375 C 125.578125 213.519531 122.667969 210.609375 119.078125 210.609375 Z M 106.71875 202.96875 C 103.210938 202.96875 100.363281 205.808594 100.363281 209.316406 C 100.363281 212.820312 103.207031 215.664062 106.71875 215.664062 C 110.226562 215.664062 113.070312 212.820312 113.070312 209.316406 C 113.070312 205.808594 110.222656 202.964844 106.71875 202.96875 Z M 114.648438 224.367188 C 111.671875 224.367188 109.257812 226.777344 109.257812 229.75 C 109.257812 232.722656 111.671875 235.140625 114.648438 235.140625 C 117.628906 235.140625 120.039062 232.726562 120.039062 229.75 C 120.039062 226.773438 117.628906 224.367188 114.648438 224.367188 Z M 114.835938 236.453125 C 112.378906 236.453125 110.386719 238.445312 110.386719 240.898438 C 110.386719 243.355469 112.378906 245.347656 114.835938 245.347656 C 117.292969 245.347656 119.285156 243.355469 119.285156 240.898438 C 119.285156 238.445312 117.296875 236.453125 114.835938 236.453125 Z M 117.597656 246.277344 C 115.652344 246.277344 114.078125 247.851562 114.078125 249.792969 C 114.078125 251.734375 115.652344 253.308594 117.597656 253.308594 C 119.539062 253.308594 121.113281 251.738281 121.109375 249.792969 C 121.109375 247.851562 119.535156 246.277344 117.597656 246.277344 Z M 106.398438 240.015625 C 104.535156 240.015625 103.027344 241.523438 103.027344 243.386719 C 103.027344 245.25 104.535156 246.757812 106.398438 246.757812 C 108.265625 246.757812 109.769531 245.25 109.769531 243.386719 C 109.769531 241.523438 108.261719 240.015625 106.398438 240.015625 Z M 96.589844 235.976562 C 94.761719 235.976562 93.273438 237.460938 93.273438 239.292969 C 93.273438 241.125 94.757812 242.605469 96.589844 242.605469 C 98.421875 242.605469 99.902344 241.121094 99.902344 239.292969 C 99.902344 237.464844 98.417969 235.976562 96.589844 235.976562 Z M 100.082031 243.210938 C 98.636719 243.210938 97.460938 244.386719 97.460938 245.832031 C 97.460938 247.28125 98.636719 248.449219 100.082031 248.449219 C 101.527344 248.449219 102.699219 247.277344 102.699219 245.832031 C 102.699219 244.390625 101.53125 243.210938 100.082031 243.210938 Z M 104.25 248.429688 C 102.941406 248.429688 101.875 249.496094 101.875 250.808594 C 101.875 252.117188 102.941406 253.179688 104.25 253.179688 C 105.5625 253.179688 106.628906 252.117188 106.625 250.808594 C 106.625 249.496094 105.5625 248.429688 104.25 248.429688 Z M 110.371094 248.167969 C 108.960938 248.167969 107.820312 249.308594 107.820312 250.71875 C 107.820312 252.132812 108.960938 253.273438 110.375 253.273438 C 111.789062 253.273438 112.929688 252.128906 112.929688 250.71875 C 112.929688 249.3125 111.785156 248.167969 110.371094 248.167969 Z M 114.886719 255.257812 C 113.59375 255.257812 112.546875 256.300781 112.546875 257.59375 C 112.546875 258.882812 113.59375 259.929688 114.886719 259.929688 C 116.183594 259.929688 117.226562 258.882812 117.226562 257.59375 C 117.226562 256.300781 116.179688 255.257812 114.886719 255.257812 Z M 109.628906 254.398438 C 108.664062 254.398438 107.878906 255.183594 107.878906 256.148438 C 107.878906 257.117188 108.664062 257.898438 109.628906 257.898438 C 110.597656 257.898438 111.378906 257.117188 111.378906 256.148438 C 111.378906 255.179688 110.597656 254.398438 109.628906 254.398438 Z M 119.203125 260.003906 C 118.3125 260.003906 117.585938 260.726562 117.585938 261.621094 C 117.585938 262.511719 118.308594 263.234375 119.199219 263.234375 C 120.09375 263.234375 120.816406 262.511719 120.816406 261.621094 C 120.816406 260.726562 120.09375 260.003906 119.199219 260.003906 Z M 121.390625 253.984375 C 119.835938 253.984375 118.574219 255.25 118.574219 256.804688 C 118.574219 258.359375 119.839844 259.617188 121.390625 259.617188 C 122.945312 259.617188 124.207031 258.359375 124.207031 256.804688 C 124.207031 255.25 122.949219 253.984375 121.390625 253.984375 Z M 125.046875 260.476562 C 123.835938 260.476562 122.855469 261.453125 122.855469 262.664062 C 122.855469 263.878906 123.835938 264.855469 125.046875 264.855469 C 126.261719 264.855469 127.242188 263.878906 127.242188 262.664062 C 127.242188 261.453125 126.261719 260.476562 125.046875 260.476562 Z M 130.085938 263.527344 C 129.277344 263.527344 128.621094 264.183594 128.621094 264.992188 C 128.621094 265.800781 129.277344 266.457031 130.082031 266.457031 C 130.890625 266.457031 131.550781 265.800781 131.550781 264.992188 C 131.550781 264.183594 130.894531 263.527344 130.085938 263.527344 Z M 104.105469 217.429688 C 101.175781 217.429688 98.800781 219.808594 98.800781 222.738281 C 98.800781 225.664062 101.175781 228.039062 104.105469 228.039062 C 107.035156 228.039062 109.414062 225.664062 109.414062 222.738281 C 109.414062 219.808594 107.035156 217.433594 104.105469 217.433594 Z M 112.457031 188.597656 C 108.765625 188.597656 105.773438 191.589844 105.773438 195.28125 C 105.773438 198.972656 108.765625 201.964844 112.457031 201.964844 C 116.152344 201.964844 119.144531 198.972656 119.144531 195.28125 C 119.144531 191.589844 116.152344 188.597656 112.457031 188.597656 Z M 97.898438 189.484375 C 94.695312 189.484375 92.097656 192.074219 92.097656 195.277344 C 92.097656 198.480469 94.695312 201.074219 97.898438 201.074219 C 101.097656 201.074219 103.695312 198.480469 103.695312 195.277344 C 103.695312 192.074219 101.097656 189.484375 97.898438 189.484375 Z M 93.308594 202.128906 C 90.328125 202.128906 87.914062 204.542969 87.914062 207.523438 C 87.914062 210.503906 90.328125 212.914062 93.308594 212.914062 C 96.285156 212.914062 98.703125 210.5 98.703125 207.523438 C 98.703125 204.546875 96.285156 202.128906 93.308594 202.128906 Z M 92.339844 214.769531 C 89.566406 214.769531 87.316406 217.015625 87.316406 219.789062 C 87.316406 222.558594 89.5625 224.804688 92.339844 224.804688 C 95.117188 224.804688 97.359375 222.558594 97.359375 219.789062 C 97.359375 217.015625 95.113281 214.769531 92.339844 214.769531 Z M 93.746094 226.449219 C 91.425781 226.449219 89.546875 228.328125 89.546875 230.640625 C 89.546875 232.953125 91.425781 234.832031 93.746094 234.832031 C 96.0625 234.832031 97.941406 232.953125 97.941406 230.640625 C 97.941406 228.328125 96.058594 226.449219 93.746094 226.449219 Z M 104.320312 229.871094 C 101.898438 229.871094 99.929688 231.835938 99.929688 234.253906 C 99.929688 236.675781 101.898438 238.644531 104.320312 238.644531 C 106.746094 238.644531 108.710938 236.679688 108.710938 234.253906 C 108.710938 231.832031 106.742188 229.871094 104.320312 229.871094 Z M 104.320312 229.871094 "/>
<path style=" stroke:none;fill-rule:nonzero;fill:rgb(55.29412%,56.078434%,56.078434%);fill-opacity:1;" d="M 27.425781 146.851562 C 27.425781 147.800781 28.191406 148.566406 29.136719 148.566406 L 247.828125 148.566406 C 248.777344 148.566406 249.542969 147.800781 249.542969 146.851562 C 249.542969 145.90625 248.777344 145.140625 247.828125 145.140625 L 29.136719 145.140625 C 28.191406 145.140625 27.425781 145.90625 27.425781 146.851562 Z M 27.425781 146.851562 "/>
<path style=" stroke:none;fill-rule:nonzero;fill:rgb(55.29412%,56.078434%,56.078434%);fill-opacity:1;" d="M 50.5625 131.328125 L 49.976562 134.230469 C 49.789062 134.925781 49.460938 135.109375 48.875 135.109375 L 38.949219 135.109375 C 36.117188 135.109375 34.5 133.640625 34.5 130.441406 L 34.5 107.300781 C 34.5 106.636719 34.792969 106.488281 35.640625 106.488281 L 39.128906 106.488281 C 39.976562 106.488281 40.269531 106.636719 40.269531 107.300781 L 40.269531 130.441406 L 49.824219 130.441406 C 50.414062 130.441406 50.746094 130.628906 50.558594 131.324219 Z M 50.5625 131.328125 "/>
<path style=" stroke:none;fill-rule:nonzero;fill:rgb(55.29412%,56.078434%,56.078434%);fill-opacity:1;" d="M 69.566406 131.105469 L 69.164062 134.484375 C 69.128906 134.925781 68.945312 135.109375 68.464844 135.109375 L 57.585938 135.109375 C 54.753906 135.109375 53.136719 133.640625 53.136719 130.441406 L 53.136719 107.300781 C 53.136719 106.785156 53.359375 106.488281 53.949219 106.488281 L 68.835938 106.488281 C 69.28125 106.488281 69.535156 106.710938 69.460938 107.148438 L 69.09375 110.527344 C 69.058594 110.96875 68.835938 111.152344 68.394531 111.152344 L 58.914062 111.152344 L 58.914062 118.351562 L 67.660156 118.351562 C 68.171875 118.351562 68.324219 118.574219 68.285156 118.976562 L 67.882812 122.355469 C 67.847656 122.757812 67.625 122.941406 67.148438 122.941406 L 58.914062 122.941406 L 58.914062 130.4375 L 68.949219 130.4375 C 69.425781 130.4375 69.613281 130.625 69.570312 131.101562 Z M 69.566406 131.105469 "/>
<path style=" stroke:none;fill-rule:nonzero;fill:rgb(55.29412%,56.078434%,56.078434%);fill-opacity:1;" d="M 71.882812 134.414062 C 74.417969 124.679688 76.917969 115.125 79.34375 107.554688 C 79.5625 106.820312 80.042969 106.488281 80.921875 106.488281 L 85.699219 106.488281 C 86.730469 106.488281 87.097656 106.820312 87.316406 107.554688 C 89.707031 115.121094 92.28125 124.675781 94.816406 134.449219 C 94.925781 134.925781 94.742188 135.113281 94.191406 135.113281 L 89.890625 135.113281 C 89.304688 135.113281 88.9375 134.855469 88.859375 134.488281 L 87.757812 129.492188 L 79.046875 129.492188 C 78.644531 131.179688 78.3125 132.835938 77.945312 134.5625 C 77.871094 134.890625 77.542969 135.113281 77.0625 135.113281 L 72.507812 135.113281 C 71.917969 135.113281 71.773438 134.855469 71.882812 134.414062 Z M 86.730469 124.972656 C 85.921875 120.707031 84.597656 115.53125 83.460938 111.15625 L 83.203125 111.15625 C 82.101562 115.53125 80.78125 120.707031 80.007812 124.972656 Z M 86.730469 124.972656 "/>
<path style=" stroke:none;fill-rule:nonzero;fill:rgb(55.29412%,56.078434%,56.078434%);fill-opacity:1;" d="M 110.988281 123.871094 C 108.523438 123.871094 107.277344 122.472656 107.277344 120.125 L 107.277344 119.867188 C 107.277344 119.390625 107.460938 119.167969 107.898438 119.167969 L 116.355469 119.167969 C 116.832031 119.167969 117.054688 119.390625 117.054688 119.832031 L 117.054688 132.25 C 117.054688 133.242188 116.796875 133.757812 116.0625 134.085938 C 114.078125 134.96875 110.660156 135.519531 107.574219 135.519531 C 100.148438 135.519531 96.800781 132.542969 96.800781 125.894531 L 96.800781 116.085938 C 96.800781 108.996094 100.734375 106.089844 108.230469 106.089844 C 110.808594 106.089844 113.378906 106.421875 115.144531 106.898438 C 115.695312 107.046875 115.84375 107.265625 115.84375 107.890625 L 115.84375 111.125 C 115.84375 111.636719 115.511719 111.746094 114.960938 111.601562 C 113.34375 111.125 110.917969 110.867188 108.675781 110.867188 C 105.074219 110.867188 102.539062 112.042969 102.539062 116.5625 L 102.539062 125.195312 C 102.539062 127.398438 102.867188 128.574219 103.675781 129.496094 C 104.339844 130.269531 105.660156 130.746094 107.683594 130.746094 C 109.117188 130.746094 110.84375 130.527344 111.6875 130.304688 L 111.6875 123.875 L 110.988281 123.875 Z M 110.988281 123.871094 "/>
<path style=" stroke:none;fill-rule:nonzero;fill:rgb(55.29412%,56.078434%,56.078434%);fill-opacity:1;" d="M 124.257812 133.238281 C 122.53125 131.660156 121.6875 129.160156 121.6875 125.742188 L 121.6875 107.113281 C 121.6875 106.746094 121.875 106.488281 122.347656 106.488281 L 126.792969 106.488281 C 127.238281 106.488281 127.453125 106.710938 127.453125 107.113281 L 127.453125 125.226562 C 127.453125 126.988281 127.640625 128.457031 128.410156 129.414062 C 129.074219 130.257812 130.210938 130.734375 131.789062 130.734375 C 133.371094 130.734375 134.546875 130.257812 135.207031 129.414062 C 135.980469 128.457031 136.125 126.988281 136.125 125.226562 L 136.125 107.113281 C 136.125 106.710938 136.382812 106.488281 136.824219 106.488281 L 141.238281 106.488281 C 141.714844 106.488281 141.902344 106.746094 141.902344 107.113281 L 141.902344 125.742188 C 141.902344 129.269531 140.980469 131.804688 139.109375 133.382812 C 137.417969 134.816406 134.992188 135.515625 131.792969 135.515625 C 128.414062 135.515625 125.914062 134.78125 124.257812 133.238281 Z M 124.257812 133.238281 "/>
<path style=" stroke:none;fill-rule:nonzero;fill:rgb(55.29412%,56.078434%,56.078434%);fill-opacity:1;" d="M 163.292969 131.105469 L 162.890625 134.484375 C 162.855469 134.925781 162.671875 135.109375 162.191406 135.109375 L 151.3125 135.109375 C 148.480469 135.109375 146.863281 133.640625 146.863281 130.441406 L 146.863281 107.300781 C 146.863281 106.785156 147.085938 106.488281 147.671875 106.488281 L 162.558594 106.488281 C 162.996094 106.488281 163.257812 106.710938 163.183594 107.148438 L 162.816406 110.527344 C 162.78125 110.96875 162.558594 111.152344 162.117188 111.152344 L 152.632812 111.152344 L 152.632812 118.351562 L 161.382812 118.351562 C 161.894531 118.351562 162.042969 118.574219 162.007812 118.976562 L 161.605469 122.355469 C 161.566406 122.757812 161.347656 122.941406 160.871094 122.941406 L 152.632812 122.941406 L 152.632812 130.4375 L 162.671875 130.4375 C 163.148438 130.4375 163.332031 130.625 163.292969 131.101562 Z M 163.292969 131.105469 "/>
<path style=" stroke:none;fill-rule:nonzero;fill:rgb(55.29412%,56.078434%,56.078434%);fill-opacity:1;" d="M 178.03125 133.09375 C 176.230469 131.511719 175.242188 129.125 175.242188 125.960938 L 175.242188 115.640625 C 175.242188 112.039062 176.597656 109.429688 178.953125 107.851562 C 180.71875 106.675781 183.03125 106.085938 185.789062 106.085938 C 188.546875 106.085938 191.082031 106.75 192.882812 108.03125 C 195.050781 109.613281 196.339844 112.148438 196.339844 115.640625 L 196.339844 125.960938 C 196.339844 129.453125 195.125 131.988281 192.921875 133.570312 C 191.15625 134.855469 188.730469 135.515625 185.789062 135.515625 C 182.519531 135.515625 179.875 134.707031 178.03125 133.09375 Z M 189.207031 129.636719 C 190.085938 128.757812 190.5625 127.214844 190.5625 125.375 L 190.5625 116.226562 C 190.5625 114.132812 190.050781 112.847656 189.167969 111.964844 C 188.433594 111.230469 187.21875 110.863281 185.785156 110.863281 C 184.351562 110.863281 183.105469 111.230469 182.371094 111.964844 C 181.484375 112.84375 181.007812 114.132812 181.007812 116.226562 L 181.007812 125.375 C 181.007812 127.210938 181.484375 128.753906 182.371094 129.636719 C 183.105469 130.371094 184.351562 130.738281 185.785156 130.738281 C 187.21875 130.738281 188.46875 130.371094 189.207031 129.636719 Z M 189.207031 129.636719 "/>
<path style=" stroke:none;fill-rule:nonzero;fill:rgb(55.29412%,56.078434%,56.078434%);fill-opacity:1;" d="M 220.964844 107.117188 L 220.964844 134.488281 C 220.964844 134.890625 220.675781 135.113281 220.265625 135.113281 L 217.398438 135.113281 C 216.589844 135.113281 216.222656 134.78125 215.964844 134.34375 L 205.746094 116.671875 L 205.523438 116.671875 L 205.523438 134.488281 C 205.523438 134.933594 205.304688 135.113281 204.824219 135.113281 L 204.570312 135.113281 C 201.957031 135.113281 200.449219 133.644531 200.449219 130.449219 L 200.449219 107.117188 C 200.449219 106.714844 200.597656 106.492188 201.039062 106.492188 L 204.273438 106.492188 C 204.933594 106.492188 205.300781 106.75 205.519531 107.261719 L 215.667969 124.714844 L 215.886719 124.714844 L 215.886719 107.117188 C 215.886719 106.675781 216.074219 106.492188 216.476562 106.492188 L 220.300781 106.492188 C 220.777344 106.492188 220.960938 106.679688 220.960938 107.117188 Z M 220.964844 107.117188 "/>
<path style=" stroke:none;fill-rule:nonzero;fill:rgb(55.29412%,56.078434%,56.078434%);fill-opacity:1;" d="M 242.46875 131.105469 L 242.0625 134.484375 C 242.027344 134.925781 241.84375 135.109375 241.363281 135.109375 L 230.484375 135.109375 C 227.652344 135.109375 226.039062 133.640625 226.039062 130.441406 L 226.039062 107.300781 C 226.039062 106.785156 226.257812 106.488281 226.847656 106.488281 L 241.730469 106.488281 C 242.175781 106.488281 242.429688 106.710938 242.355469 107.148438 L 241.988281 110.527344 C 241.953125 110.96875 241.730469 111.152344 241.289062 111.152344 L 231.808594 111.152344 L 231.808594 118.351562 L 240.554688 118.351562 C 241.070312 118.351562 241.214844 118.574219 241.179688 118.976562 L 240.773438 122.355469 C 240.738281 122.757812 240.515625 122.941406 240.039062 122.941406 L 231.804688 122.941406 L 231.804688 130.4375 L 241.839844 130.4375 C 242.316406 130.4375 242.503906 130.625 242.460938 131.101562 Z M 242.46875 131.105469 "/>
<path style=" stroke:none;fill-rule:nonzero;fill:url(#linear0);" d="M 136.601562 28.179688 L 245.183594 28.179688 C 247.597656 28.179688 249.554688 30.136719 249.554688 32.546875 L 249.554688 89.386719 C 249.554688 91.796875 247.597656 93.753906 245.183594 93.753906 L 136.601562 93.753906 C 134.1875 93.753906 132.226562 91.796875 132.226562 89.386719 L 132.226562 32.546875 C 132.226562 30.136719 134.1875 28.179688 136.601562 28.179688 Z M 136.601562 28.179688 "/>
<path style=" stroke:none;fill-rule:nonzero;fill:rgb(100%,100%,100%);fill-opacity:1;" d="M 177.140625 61.328125 C 177.140625 71.4375 170.054688 77.425781 162.261719 77.425781 C 157.625 77.425781 153.828125 75.238281 151.574219 72.144531 L 151.574219 75.105469 C 151.574219 76.394531 150.867188 77.105469 148.742188 77.105469 C 147.839844 77.105469 146.808594 76.972656 146.292969 76.847656 L 146.292969 36.808594 C 146.292969 35.585938 147 34.808594 149.128906 34.808594 C 150.027344 34.808594 151.058594 34.941406 151.578125 35.066406 L 151.578125 50.582031 C 153.832031 47.488281 157.628906 45.304688 162.265625 45.304688 C 170.058594 45.304688 177.144531 51.292969 177.144531 61.328125 Z M 171.796875 61.328125 C 171.796875 54.570312 167.285156 49.9375 161.238281 49.9375 C 157.113281 49.9375 153.3125 52.316406 151.578125 55.796875 L 151.578125 66.929688 C 153.3125 70.410156 157.113281 72.789062 161.238281 72.789062 C 167.289062 72.789062 171.796875 68.15625 171.796875 61.328125 Z M 171.796875 61.328125 "/>
<path style=" stroke:none;fill-rule:nonzero;fill:rgb(100%,100%,100%);fill-opacity:1;" d="M 211.480469 63.261719 L 187.523438 63.261719 C 188.230469 69.25 192.351562 72.597656 198.472656 72.597656 C 201.113281 72.597656 203.171875 72.082031 205.105469 71.441406 C 206.457031 70.988281 207.039062 70.796875 207.554688 70.796875 C 209.035156 70.796875 210.003906 72.019531 209.742188 74.851562 C 206.972656 76.074219 202.722656 77.425781 198.277344 77.425781 C 188.617188 77.425781 182.113281 70.921875 182.113281 61.265625 C 182.113281 51.609375 189.003906 45.304688 197.441406 45.304688 C 206.96875 45.304688 211.671875 52.703125 211.671875 60.171875 C 211.671875 61.074219 211.609375 62.171875 211.480469 63.265625 Z M 187.523438 59.140625 L 206.523438 59.140625 C 206.332031 53.859375 202.917969 49.738281 197.445312 49.738281 C 192.675781 49.738281 188.363281 53.023438 187.527344 59.140625 Z M 187.523438 59.140625 "/>
<path style=" stroke:none;fill-rule:nonzero;fill:rgb(100%,100%,100%);fill-opacity:1;" d="M 236.753906 75.296875 C 234.046875 76.582031 230.953125 77.421875 227.867188 77.421875 C 221.75 77.421875 218.074219 73.816406 218.074219 67.828125 L 218.074219 41.242188 C 218.074219 39.890625 218.851562 38.988281 220.910156 38.988281 C 221.8125 38.988281 222.84375 39.179688 223.359375 39.3125 L 223.359375 46.003906 L 235.402344 46.003906 C 235.464844 46.457031 235.59375 47.355469 235.59375 48.128906 C 235.59375 49.996094 234.820312 50.640625 233.664062 50.640625 L 223.359375 50.640625 L 223.359375 67.441406 C 223.359375 71.042969 225.035156 72.78125 228.445312 72.78125 C 231.539062 72.78125 233.277344 71.433594 234.757812 71.433594 C 236.238281 71.433594 237.074219 72.71875 236.757812 75.292969 Z M 236.753906 75.296875 "/>
<path style=" stroke:none;fill-rule:nonzero;fill:url(#linear1);" d="M 92.992188 89.042969 C 93.773438 89.445312 95.359375 89.921875 97.351562 89.972656 C 100.78125 90.046875 102.648438 88.742188 104.035156 85.671875 L 122.410156 44.769531 C 121.65625 44.367188 119.964844 43.914062 118.601562 43.890625 C 116.234375 43.839844 113.058594 44.316406 111.039062 49.148438 L 105.09375 63.15625 L 93.421875 44.195312 C 92.664062 43.96875 90.824219 43.640625 89.488281 43.640625 C 85.351562 43.640625 83.058594 45.148438 80.664062 47.738281 L 69.324219 60.113281 L 78.445312 74.453125 C 80.136719 77.070312 82.351562 78.398438 85.957031 78.398438 C 88.328125 78.398438 90.292969 77.847656 91.199219 77.421875 L 80.207031 60.890625 L 87.996094 52.640625 L 100.777344 72.664062 L 92.988281 89.039062 Z M 68.878906 73.570312 C 68.878906 76.589844 67.695312 78.324219 61.796875 78.324219 C 61.011719 78.324219 60.335938 78.273438 59.679688 78.175781 L 59.679688 38.179688 C 59.679688 35.136719 60.714844 31.96875 66.660156 31.96875 C 67.414062 31.96875 68.171875 32.042969 68.878906 32.191406 Z M 56.710938 67.53125 C 56.710938 73.164062 53.03125 77.265625 45.542969 78.070312 C 40.125 78.652344 32.28125 77.96875 28.554688 77.542969 C 28.425781 76.9375 28.328125 76.183594 28.328125 75.582031 C 28.328125 70.671875 30.976562 69.542969 33.472656 69.542969 C 35.964844 69.542969 40.152344 70 43.179688 70 C 46.53125 70 47.539062 68.867188 47.539062 67.785156 C 47.539062 66.375 46.203125 65.796875 43.605469 65.292969 L 36.496094 63.933594 C 30.59375 62.800781 27.449219 58.726562 27.449219 54.402344 C 27.449219 49.144531 31.179688 44.742188 38.515625 43.9375 C 44.058594 43.332031 50.816406 44.011719 54.519531 44.464844 C 54.648438 45.09375 54.722656 45.699219 54.722656 46.351562 C 54.722656 51.253906 52.128906 52.3125 49.632812 52.3125 C 47.714844 52.3125 44.742188 51.960938 41.339844 51.960938 C 37.933594 51.960938 36.449219 52.917969 36.449219 54.074219 C 36.449219 55.304688 37.8125 55.8125 39.980469 56.1875 L 46.761719 57.445312 C 53.71875 58.726562 56.714844 62.675781 56.714844 67.53125 Z M 56.710938 67.53125 "/>
</g>
</svg>
